<svg width="22" height="17" viewBox="0 0 22 17" fill="none" xmlns="http://www.w3.org/2000/svg">
    <path fill-rule="evenodd" clip-rule="evenodd" d="M7.21742 0.117361C5.94536 0.39522 4.74634 0.783252 3.65107 1.27149L3.32027 1.41896L2.9246 2.0554C2.70698 2.40544 2.52893 2.69896 2.52893 2.70768C2.52893 2.71644 2.45894 2.84402 2.37334 2.99123C2.28778 3.13848 2.09606 3.50433 1.94732 3.80426C0.899659 5.91667 0.29057 8.03885 0.0468342 10.4257C-0.00633279 10.9463 -0.0173819 13.1421 0.0300451 13.755L0.0603597 14.1466L0.298283 14.3193C1.51607 15.2032 2.97299 15.9983 4.43032 16.574C4.76166 16.705 5.6029 16.9945 5.65187 16.9945C5.67784 16.9945 6.29116 16.0799 6.43445 15.8275C6.66929 15.4139 6.87743 15.02 6.86592 15.0111C6.8582 15.005 6.68238 14.9299 6.4752 14.844C6.04308 14.6649 5.04019 14.1531 5.04019 14.1116C5.04019 14.0963 5.12863 14.0159 5.23672 13.9329L5.43321 13.782L5.5865 13.8527C6.04882 14.066 6.33877 14.1794 6.9057 14.3685C7.89288 14.6977 8.81222 14.889 9.89411 14.9904C10.4837 15.0457 12.1209 15.013 12.6637 14.9352C13.917 14.7555 15.046 14.4422 16.1388 13.9708L16.5645 13.7871L16.7576 13.9355C16.8638 14.0171 16.9508 14.0964 16.9508 14.1118C16.9508 14.1522 15.882 14.6968 15.4799 14.8615C15.2924 14.9382 15.1334 15.005 15.1264 15.0101C15.1146 15.0186 15.3622 15.4901 15.5743 15.8632C15.6715 16.0341 16.1517 16.7672 16.2633 16.9151L16.3273 17L16.7915 16.8468C17.8178 16.5081 18.9969 15.9837 19.9463 15.4437C20.3949 15.1886 20.4902 15.1302 20.9729 14.8148C21.1335 14.7098 21.2795 14.633 21.2971 14.6441C21.3148 14.6552 21.3249 14.648 21.3195 14.6281C21.314 14.6081 21.4489 14.4925 21.6191 14.3712L21.9286 14.1506L21.9505 13.9212C22.0024 13.3783 22.018 11.4835 21.9754 10.8985C21.831 8.91516 21.438 7.15758 20.7334 5.34457C20.4807 4.69426 19.8421 3.37054 19.4789 2.74392C19.2642 2.37359 18.7094 1.48188 18.6546 1.41904C18.5918 1.347 17.2596 0.819781 16.6038 0.607464C15.735 0.326102 14.1667 -0.0471129 14.0807 0.00696994C14.0608 0.0194506 13.9208 0.28731 13.7695 0.602173C13.6181 0.917072 13.4931 1.17676 13.4916 1.17928C13.4901 1.18179 13.3296 1.16274 13.135 1.13694C11.807 0.960973 9.67972 0.977834 8.62771 1.17271L8.50215 1.19595L8.21515 0.601442C7.99534 0.146117 7.91136 0.00536408 7.8564 0.000182051C7.81693 -0.00350376 7.52939 0.0492288 7.21742 0.117361ZM7.69933 7.15733C7.9858 7.21911 8.29712 7.37574 8.53297 7.57667C8.62882 7.65838 8.69387 7.72523 8.67743 7.72523C8.66104 7.72523 8.68368 7.75092 8.72773 7.78231C8.94019 7.93368 9.21581 8.54133 9.27935 8.99841C9.48764 10.4964 8.223 11.845 6.93092 11.5027C6.25252 11.3229 5.72125 10.7871 5.48311 10.0425C5.35374 9.63806 5.34678 9.0726 5.46625 8.67405C5.68928 7.93003 6.24058 7.34508 6.86983 7.18484C7.23493 7.09186 7.37416 7.08722 7.69933 7.15733ZM15.2018 7.21119C15.5387 7.3291 15.707 7.43748 15.9653 7.70312C16.459 8.21077 16.6775 8.87352 16.589 9.59499C16.5162 10.1883 16.2692 10.6923 15.8724 11.0576C15.316 11.5698 14.539 11.6935 13.8871 11.3737C13.624 11.2446 13.0975 10.7725 13.1276 10.6926C13.1384 10.6642 13.1341 10.6491 13.1182 10.6591C13.0724 10.6879 12.8371 10.2122 12.7681 9.95131C12.6914 9.66097 12.6815 9.06522 12.7487 8.78353C12.8725 8.26475 13.2443 7.70231 13.6394 7.4361C13.8169 7.31651 14.1192 7.1905 14.3498 7.14003C14.5506 7.09609 14.974 7.13145 15.2018 7.21119Z" fill="#0A4A84"/>
</svg>
