
<svg width="21" height="20" viewBox="0 0 21 20" fill="none" xmlns="http://www.w3.org/2000/svg">
    <path fill-rule="evenodd" clip-rule="evenodd" d="M9.6807 0.0370882C9.05033 0.0782831 8.21756 0.224086 7.56297 0.407842C3.8619 1.44704 0.983211 4.48185 0.218232 8.15099C-0.339866 10.8278 0.182445 13.5749 1.67075 15.7907C2.71751 17.3491 4.04834 18.5374 5.64302 19.3377C6.22299 19.6287 7.04193 19.9533 7.29613 19.993C7.53388 20.0301 7.74314 19.9184 7.84126 19.7019C7.91419 19.5411 7.91764 19.4616 7.89121 18.5568L7.86277 17.5845L7.50975 17.6379C7.11326 17.6978 6.45774 17.6763 5.92672 17.5859C5.49663 17.5128 5.05939 17.3008 4.78406 17.0319C4.56626 16.8192 4.51008 16.7269 4.22477 16.1127C3.96704 15.5578 3.67291 15.1895 3.27548 14.924C3.00154 14.741 2.77664 14.5014 2.79441 14.4114C2.81805 14.2916 2.99259 14.2385 3.29161 14.2599C3.869 14.3013 4.47351 14.7127 4.90418 15.3572C5.19909 15.7985 5.48998 16.0728 5.84583 16.245C6.10196 16.369 6.17226 16.3845 6.54117 16.3979C6.96523 16.4133 7.38995 16.3509 7.73468 16.2225C7.90496 16.159 7.9105 16.1511 7.973 15.8811C8.0525 15.5376 8.20262 15.2236 8.40905 14.9688L8.56767 14.7731L8.23155 14.727C7.14925 14.5784 6.37853 14.3208 5.65976 13.8672C4.71893 13.2734 4.16034 12.3491 3.89165 10.9414C3.80805 10.5032 3.79492 9.3838 3.86854 8.97189C3.98785 8.30468 4.26991 7.69285 4.6904 7.1893L4.8741 6.96935L4.79448 6.71982C4.57993 6.04733 4.62068 5.23417 4.90943 4.42584C4.98195 4.22283 4.99968 4.21462 5.3305 4.23128C5.81395 4.25558 6.852 4.66208 7.55809 5.10357L7.8521 5.28741L8.07897 5.24405C8.20377 5.22023 8.43892 5.17267 8.60161 5.1384C9.71362 4.90401 11.2894 4.90401 12.4014 5.1384C12.5641 5.17267 12.7987 5.21959 12.9228 5.24265L13.1486 5.28457L13.5384 5.05329C14.4675 4.50223 15.5264 4.13231 15.8976 4.22916C16.003 4.2567 16.0327 4.29765 16.1137 4.52805C16.2903 5.03015 16.3398 5.36896 16.319 5.93436C16.3051 6.31516 16.2766 6.52722 16.2144 6.71346L16.1289 6.96935L16.3084 7.18429C16.6732 7.6211 16.946 8.16124 17.0968 8.74498C17.1884 9.09956 17.1985 10.4136 17.1135 10.9213C16.9808 11.7141 16.644 12.5461 16.252 13.0498C15.574 13.9209 14.3459 14.5151 12.7916 14.7242L12.4347 14.7723L12.5936 14.9684C12.7892 15.2098 12.9421 15.5191 13.0306 15.8525C13.0865 16.0632 13.1005 16.4013 13.1135 17.8672C13.131 19.8273 13.1305 19.824 13.4053 19.9512C13.595 20.039 13.7487 20.0121 14.348 19.7863C17.3746 18.646 19.7657 16.0536 20.6382 12.9667C21.2182 10.9151 21.0956 8.53276 20.3082 6.55712C19.6058 4.79455 18.3589 3.18539 16.8282 2.06625C15.1685 0.852658 13.2783 0.167879 11.2204 0.0345661C10.5016 -0.0119933 10.4304 -0.0118732 9.6807 0.0370882Z" fill="#0A4A84"/>
</svg>
