<svg width="181" height="49" viewBox="0 0 181 49" fill="none" xmlns="http://www.w3.org/2000/svg">
    <circle cx="24.5" cy="24.5" r="24.5" fill="#F4F4F4"/>
    <mask id="mask0" x="0" y="0" width="49" height="49">
        <circle cx="24.5" cy="24.5" r="24.5" fill="#F4F4F4"/>
    </mask>
    <g mask="url(#mask0)">
        <path d="M30.8258 34.5504C24.5979 32.5837 24.436 39.8841 25.4978 45.8859C25.8848 48.0736 27.8633 49.5504 30.085 49.5504C30.5762 49.5504 31.0602 49.4798 31.5284 49.3314C41.9509 46.026 58.9939 38.1988 48.8258 31.5504C38.4258 24.7504 37.1592 27.0504 37.8258 29.0504C38.6592 31.8838 38.4258 36.9504 30.8258 34.5504Z" fill="#C4C4C4"/>
        <path d="M20.5 31.5C16.1977 30.5072 13.7664 17.9228 14.5656 12.0971C14.7802 10.5324 16.5961 10.051 18.1362 10.4012C21.1769 11.0927 25.8663 11.8813 28 14C30.7021 16.683 32.4787 26.5 32 27.5C31.2217 29.1261 27 33 20.5 31.5Z" fill="#C4C4C4"/>
        <path d="M35.9079 17.9447C37.625 18.6726 39.7392 19.0972 42.1691 18.8213C45.9378 18.3932 50.5633 11.7846 50.8156 8C51.3155 0.5 28.8156 -1 22.8156 -1C16.8156 -1 19.3156 1.50002 20.8156 3.5C21.1906 4 20.3156 4.5 27.3156 7C29.5281 7.79018 30.8249 8.91857 31.5327 10.1076C33.1257 12.7838 33.0405 16.7291 35.9079 17.9447Z" fill="#C4C4C4"/>
        <path d="M7.71341 16.4162C7.71335 11.1176 -17.442 9.57467 -9.42165 17.5179C-8.42631 18.5036 -7.468 19.5689 -6.84512 20.8236C-2.24654 30.0874 5.84861 45.6703 7.71341 46.4162C10.2134 47.4162 13.2134 35.4778 13.2134 33.4162C13.2134 30.4162 7.71346 21.4162 7.71341 16.4162Z" fill="#C4C4C4"/>
    </g>
    <path d="M73.4297 19.3203V33.125C73.4297 34.4219 73.1055 35.4102 72.457 36.0898C71.8164 36.7773 70.875 37.1211 69.6328 37.1211C69.1094 37.1211 68.6055 37.0547 68.1211 36.9219V34.6719C68.418 34.7422 68.7539 34.7773 69.1289 34.7773C70.0742 34.7773 70.5586 34.2617 70.582 33.2305V19.3203H73.4297ZM70.3359 16.0273C70.3359 15.5898 70.4727 15.2266 70.7461 14.9375C71.0273 14.6484 71.4258 14.5039 71.9414 14.5039C72.457 14.5039 72.8555 14.6484 73.1367 14.9375C73.418 15.2266 73.5586 15.5898 73.5586 16.0273C73.5586 16.457 73.418 16.8164 73.1367 17.1055C72.8555 17.3867 72.457 17.5273 71.9414 17.5273C71.4258 17.5273 71.0273 17.3867 70.7461 17.1055C70.4727 16.8164 70.3359 16.457 70.3359 16.0273ZM84.1641 30.7578C83.3281 31.7422 82.1406 32.2344 80.6016 32.2344C79.2266 32.2344 78.1836 31.832 77.4727 31.0273C76.7695 30.2227 76.418 29.0586 76.418 27.5352V19.3203H79.2656V27.5C79.2656 29.1094 79.9336 29.9141 81.2695 29.9141C82.6523 29.9141 83.5859 29.418 84.0703 28.4258V19.3203H86.918V32H84.2344L84.1641 30.7578ZM96.9258 28.5547C96.9258 28.0469 96.7148 27.6602 96.293 27.3945C95.8789 27.1289 95.1875 26.8945 94.2188 26.6914C93.25 26.4883 92.4414 26.2305 91.793 25.918C90.3711 25.2305 89.6602 24.2344 89.6602 22.9297C89.6602 21.8359 90.1211 20.9219 91.043 20.1875C91.9648 19.4531 93.1367 19.0859 94.5586 19.0859C96.0742 19.0859 97.2969 19.4609 98.2266 20.2109C99.1641 20.9609 99.6328 21.9336 99.6328 23.1289H96.7852C96.7852 22.582 96.582 22.1289 96.1758 21.7695C95.7695 21.4023 95.2305 21.2188 94.5586 21.2188C93.9336 21.2188 93.4219 21.3633 93.0234 21.6523C92.6328 21.9414 92.4375 22.3281 92.4375 22.8125C92.4375 23.25 92.6211 23.5898 92.9883 23.832C93.3555 24.0742 94.0977 24.3203 95.2148 24.5703C96.332 24.8125 97.207 25.1055 97.8398 25.4492C98.4805 25.7852 98.9531 26.1914 99.2578 26.668C99.5703 27.1445 99.7266 27.7227 99.7266 28.4023C99.7266 29.543 99.2539 30.4688 98.3086 31.1797C97.3633 31.8828 96.125 32.2344 94.5938 32.2344C93.5547 32.2344 92.6289 32.0469 91.8164 31.6719C91.0039 31.2969 90.3711 30.7812 89.918 30.125C89.4648 29.4688 89.2383 28.7617 89.2383 28.0039H92.0039C92.043 28.6758 92.2969 29.1953 92.7656 29.5625C93.2344 29.9219 93.8555 30.1016 94.6289 30.1016C95.3789 30.1016 95.9492 29.9609 96.3398 29.6797C96.7305 29.3906 96.9258 29.0156 96.9258 28.5547ZM105.785 16.2383V19.3203H108.023V21.4297H105.785V28.5078C105.785 28.9922 105.879 29.3438 106.066 29.5625C106.262 29.7734 106.605 29.8789 107.098 29.8789C107.426 29.8789 107.758 29.8398 108.094 29.7617V31.9648C107.445 32.1445 106.82 32.2344 106.219 32.2344C104.031 32.2344 102.938 31.0273 102.938 28.6133V21.4297H100.852V19.3203H102.938V16.2383H105.785ZM112.887 19.3203L112.969 20.6445C113.859 19.6055 115.078 19.0859 116.625 19.0859C118.32 19.0859 119.48 19.7344 120.105 21.0312C121.027 19.7344 122.324 19.0859 123.996 19.0859C125.395 19.0859 126.434 19.4727 127.113 20.2461C127.801 21.0195 128.152 22.1602 128.168 23.668V32H125.32V23.75C125.32 22.9453 125.145 22.3555 124.793 21.9805C124.441 21.6055 123.859 21.418 123.047 21.418C122.398 21.418 121.867 21.5938 121.453 21.9453C121.047 22.2891 120.762 22.7422 120.598 23.3047L120.609 32H117.762V23.6562C117.723 22.1641 116.961 21.418 115.477 21.418C114.336 21.418 113.527 21.8828 113.051 22.8125V32H110.203V19.3203H112.887ZM136.676 32.2344C134.871 32.2344 133.406 31.668 132.281 30.5352C131.164 29.3945 130.605 27.8789 130.605 25.9883V25.6367C130.605 24.3711 130.848 23.2422 131.332 22.25C131.824 21.25 132.512 20.4727 133.395 19.918C134.277 19.3633 135.262 19.0859 136.348 19.0859C138.074 19.0859 139.406 19.6367 140.344 20.7383C141.289 21.8398 141.762 23.3984 141.762 25.4141V26.5625H133.477C133.562 27.6094 133.91 28.4375 134.52 29.0469C135.137 29.6562 135.91 29.9609 136.84 29.9609C138.145 29.9609 139.207 29.4336 140.027 28.3789L141.562 29.8438C141.055 30.6016 140.375 31.1914 139.523 31.6133C138.68 32.0273 137.73 32.2344 136.676 32.2344ZM136.336 21.3711C135.555 21.3711 134.922 21.6445 134.438 22.1914C133.961 22.7383 133.656 23.5 133.523 24.4766H138.949V24.2656C138.887 23.3125 138.633 22.5938 138.188 22.1094C137.742 21.6172 137.125 21.3711 136.336 21.3711ZM143.449 25.5664C143.449 23.6133 143.902 22.0469 144.809 20.8672C145.715 19.6797 146.93 19.0859 148.453 19.0859C149.797 19.0859 150.883 19.5547 151.711 20.4922V14H154.559V32H151.98L151.84 30.6875C150.988 31.7188 149.852 32.2344 148.43 32.2344C146.945 32.2344 145.742 31.6367 144.82 30.4414C143.906 29.2461 143.449 27.6211 143.449 25.5664ZM146.297 25.8125C146.297 27.1016 146.543 28.1094 147.035 28.8359C147.535 29.5547 148.242 29.9141 149.156 29.9141C150.32 29.9141 151.172 29.3945 151.711 28.3555V22.9414C151.188 21.9258 150.344 21.418 149.18 21.418C148.258 21.418 147.547 21.7852 147.047 22.5195C146.547 23.2461 146.297 24.3438 146.297 25.8125ZM163.113 32.2344C161.309 32.2344 159.844 31.668 158.719 30.5352C157.602 29.3945 157.043 27.8789 157.043 25.9883V25.6367C157.043 24.3711 157.285 23.2422 157.77 22.25C158.262 21.25 158.949 20.4727 159.832 19.918C160.715 19.3633 161.699 19.0859 162.785 19.0859C164.512 19.0859 165.844 19.6367 166.781 20.7383C167.727 21.8398 168.199 23.3984 168.199 25.4141V26.5625H159.914C160 27.6094 160.348 28.4375 160.957 29.0469C161.574 29.6562 162.348 29.9609 163.277 29.9609C164.582 29.9609 165.645 29.4336 166.465 28.3789L168 29.8438C167.492 30.6016 166.812 31.1914 165.961 31.6133C165.117 32.0273 164.168 32.2344 163.113 32.2344ZM162.773 21.3711C161.992 21.3711 161.359 21.6445 160.875 22.1914C160.398 22.7383 160.094 23.5 159.961 24.4766H165.387V24.2656C165.324 23.3125 165.07 22.5938 164.625 22.1094C164.18 21.6172 163.562 21.3711 162.773 21.3711ZM174.727 28.3906L177.41 19.3203H180.352L175.957 32H173.484L169.055 19.3203H172.008L174.727 28.3906Z" fill="white"/>
</svg>
