<svg width="17" height="18" viewBox="0 0 17 18" fill="none" xmlns="http://www.w3.org/2000/svg">
    <path fill-rule="evenodd" clip-rule="evenodd" d="M7.16744 0.402224C3.6254 0.97462 0.890392 3.5857 0.11492 7.13528C0.0150377 7.59237 0.000403245 7.80887 4.50591e-05 8.83468C-0.000313127 9.94604 0.00751585 10.0435 0.143678 10.6195C0.775927 13.2947 2.40281 15.3463 4.8071 16.5007C9.05472 18.5402 14.1351 16.7405 16.1645 12.4775C16.6523 11.4528 16.8628 10.675 16.9684 9.5073C17.1439 7.5665 16.5834 5.515 15.4412 3.91725C14.1765 2.14803 12.4382 0.997467 10.2782 0.499846C9.74132 0.376157 9.54554 0.35745 8.64481 0.344059C7.93335 0.333479 7.48306 0.351214 7.16744 0.402224ZM9.30396 0.841125C12.5248 1.24087 14.8076 3.33128 15.804 6.34113C16.3737 8.0621 16.3742 9.62624 15.804 11.3411C15.0013 13.7549 13.225 15.538 10.804 16.3411C7.27194 17.5128 3.80396 15.8411 1.80396 13.3411C-0.877423 9.2816 0.44156 4.03201 4.80396 1.84113C6.1929 1.14361 7.81968 0.65692 9.30396 0.841125ZM9.72376 2.06994C9.31052 2.28287 8.96809 2.64172 8.49601 3.35646C7.75431 4.47943 7.12421 5.81829 7.05313 6.42253C7.02458 6.66521 7.04008 6.72945 7.20413 7.04829C7.30473 7.24368 7.43803 7.48406 7.5004 7.58245L7.61379 7.76134L7.42078 7.58245C7.31466 7.48406 7.16386 7.2928 7.08573 7.15746L6.94363 6.91131L6.82855 7.33635C6.6689 7.92612 6.57634 8.4723 6.57424 8.83744C6.57204 9.21372 6.71255 9.52366 7.06997 9.93112C7.30811 10.2026 7.30995 10.2072 7.14155 10.11C7.04648 10.0551 6.88617 9.91251 6.78531 9.79302C6.68446 9.67357 6.58381 9.57579 6.5616 9.57579C6.53944 9.57579 6.52163 9.73102 6.5221 9.9208C6.52276 10.1834 6.55049 10.3144 6.6383 10.4692C6.73363 10.6373 6.99342 10.8436 7.20336 10.9179C7.22675 10.9262 7.20664 11.4958 7.15864 12.1839C7.05108 13.727 7.07841 14.7162 7.24241 15.2151C7.43475 15.8003 7.63774 15.8489 7.74781 15.3362C7.77897 15.191 7.82625 14.3522 7.85291 13.4722C7.89574 12.0554 7.97699 10.7625 8.02627 10.7133C8.03569 10.7038 8.16607 10.6768 8.31599 10.6531C8.52476 10.6201 8.6162 10.5757 8.70667 10.4635C8.92168 10.1966 9.33559 8.98244 9.33559 8.61848C9.33559 8.46923 9.32014 8.45134 9.1914 8.45134C9.11203 8.45134 8.92557 8.48743 8.77698 8.53149C8.62838 8.57554 8.49595 8.60079 8.4827 8.58761C8.45103 8.55592 8.93402 8.37907 9.26324 8.30179L9.52344 8.24071L9.76096 7.46438C10.0126 6.64175 10.2365 5.70125 10.291 5.23813C10.3218 4.97674 10.3176 4.96136 10.2263 5.00061C10.1726 5.02371 9.96754 5.05003 9.77053 5.05913L9.41235 5.07564L9.74495 4.98507C10.3244 4.82724 10.2917 4.87983 10.3339 4.03752C10.3879 2.95841 10.3538 2.21673 10.2422 2.04668C10.13 1.87571 10.0979 1.8772 9.72376 2.06994ZM9.63795 3.1123C9.30873 3.83752 8.79448 5.30503 8.59983 6.07466C8.42365 6.77121 8.05707 8.57442 7.96077 9.21801C7.74637 10.6507 7.59982 12.6608 7.59696 14.2066C7.59635 14.5469 7.58033 14.9724 7.5614 15.1522C7.53085 15.4422 7.52215 15.4618 7.48459 15.3258C7.31798 14.7225 7.3361 12.542 7.52322 10.6747C7.81044 7.80836 8.42473 5.48356 9.47206 3.29911C9.77053 2.67647 9.90393 2.52626 9.63795 3.1123Z" fill="white" fill-opacity="0.8"/>
</svg>
